<svg width="280" height="280" viewBox="0 0 280 280" fill="none" xmlns="http://www.w3.org/2000/svg">
<path d="M234.507 117.752C234.507 117.752 200.02 137.466 222.498 199.314C242.46 254.241 170.909 261.704 143.09 250.132C107.054 235.14 95.1721 183.308 63.4061 192.49C31.64 201.672 17.0872 127.761 63.9465 111.206C122.238 90.6118 92.5983 65.6991 101.922 43.789C108.614 28.0639 161.426 12.4062 181.217 46.5785C197.871 75.3345 210.247 68.7825 220.79 67.546C235.994 65.762 262.128 96.4879 234.507 117.752Z" fill="#DEE9FF"/>
<path d="M145.637 113.523C145.637 113.523 91.1898 174.681 90.5607 181.463C90.5607 181.463 93.02 182.553 95.7631 185.732C98.9383 189.413 102.743 190.817 104.649 189.781C107.394 188.289 107.158 186.233 107.158 186.233L149.179 201.455C149.179 201.455 164.019 196.802 194.114 165.431L202.12 153.993L145.637 113.523Z" fill="#0E84E5"/>
<path d="M83.2432 122.358C83.2432 122.358 89.9444 127.165 97.9531 122.633L123.141 108.176C123.141 108.176 131.718 101.846 140.537 107.935C140.537 107.935 132.524 127.399 149.033 130.73C149.033 130.73 165.144 138.114 173.669 145.694C177.955 149.507 187.123 155.975 191.482 159.628C192.652 160.607 195.045 162.07 196.259 163.537C197.945 165.574 201.168 170.017 195.997 174.327C195.997 174.327 192.552 178.375 185.648 174.114C179.231 170.155 168.045 160.971 161.265 156.698C160.897 156.467 159.217 156.124 161.56 158.411C164.452 161.229 177.954 171.21 177.954 171.21C177.954 171.21 183.005 174.717 184.205 176.498C185.259 178.059 186.881 181.488 183.861 185.211C183.861 185.211 179.571 190.865 172.217 186.372L155.334 174.586C155.334 174.586 151.743 172.268 154.63 175.651C154.63 175.651 171.765 187.69 172.439 189.522C174.36 194.744 170.643 201.461 162.293 198.219L142.948 187.642C142.948 187.642 141.18 187.383 142.627 188.793C142.627 188.793 160.576 198.056 161.819 199.074C163.446 200.405 159.497 206.678 151.314 204.165C139.644 200.583 116.055 194.133 104.648 189.78C100.635 188.249 92.3909 184.159 89.2135 182.236C89.2135 182.236 76.4679 174.215 59.0145 173.882L71.5889 120.285L83.2432 122.358Z" fill="#699CFF"/>
<path d="M102.739 193.393C102.739 193.393 106.425 188.525 108.703 186.763C113.325 183.192 121.665 186.653 122.07 191.03C122.07 191.03 123.868 195.331 116.412 201.674C115.034 202.845 110.654 205.63 104.25 200.368C104.25 200.368 100.429 196.854 102.739 193.393Z" fill="#0E84E5"/>
<path d="M110.125 150.116C110.125 150.116 120.805 158.574 131.86 133.413C131.86 133.413 137.742 135.462 146.881 130.163L148.785 127.202C148.785 127.202 130.224 129.177 130.306 129.542C130.388 129.907 110.125 150.116 110.125 150.116Z" fill="#0E84E5"/>
<path d="M118.62 202.915C118.489 199.686 123.015 193.762 124.997 191.671C127.331 189.207 136.523 186.852 137.591 196.638C137.591 196.638 137.021 203.496 131.915 207.405C129.488 209.265 118.898 209.761 118.62 202.915Z" fill="#0E84E5"/>
<path d="M139.224 198.031C140.789 195.543 148.543 194.356 148.716 201.501C148.782 204.207 147.372 208.667 143.354 210.435C140.433 211.72 132.724 209.628 134.189 206.495C135.196 204.341 135.688 203.653 139.224 198.031Z" fill="#0E84E5"/>
<path d="M89.0374 187.013C89.7112 185.532 90.8246 184.112 93.048 182.321C94.3932 181.238 98.1732 180.817 100.446 182.237C102.078 183.256 105.294 185.645 104.573 187.771C103.202 191.809 100.877 197.28 95.8443 195.699C95.8441 195.698 86.0333 193.616 89.0374 187.013Z" fill="#0E84E5"/>
<path d="M81.2333 117.084L70.9608 183.863L37.9756 177.515L52.5942 109.487L81.2333 117.084Z" fill="#0E84E5"/>
<path d="M92.6697 184.763C92.6697 184.763 91.057 189.339 93.9204 191.261C93.9204 191.261 97.6052 195.683 102.166 188.379C102.927 187.162 101.227 185.013 98.2166 184.21C98.2168 184.21 95.3647 183.111 92.6697 184.763Z" fill="#D4E5FF"/>
<path d="M107.267 192.991C107.267 192.991 109.144 188.789 110.739 188.143C112.381 187.478 117.315 187.371 119.388 192.217C119.744 193.051 118.456 194.791 117.877 195.714C116.808 197.417 114.05 199.966 110.843 198.215C110.843 198.215 106.74 196.734 107.267 192.991Z" fill="#D4E5FF"/>
<path d="M124.054 196.588C124.5 195.367 126.228 193.142 127.802 192.985C130.39 192.727 136.368 194.647 134.788 198.474C134.788 198.474 133.432 201.719 130.522 202.476C130.522 202.476 125.475 204.285 123.608 199.589C123.327 198.884 123.796 197.3 124.054 196.588Z" fill="#D4E5FF"/>
<path d="M137.758 203.927C138.504 205.786 141.7 207.707 143.651 205.935C144.442 205.218 146.071 202.819 146.16 201.756C146.309 199.957 142.77 196.16 139.67 199.696C138.938 200.531 137.346 202.896 137.758 203.927Z" fill="#D4E5FF"/>
<path d="M152.933 106.202C152.933 106.202 142.14 102.798 133.884 111.087L120.046 119.56C120.046 119.56 114.143 121.517 112.318 129.413L106.032 142.483C106.032 142.483 100.953 151.452 115.763 150.223C115.763 150.223 124.24 146.641 130.97 133.029L130.923 131.292C130.923 131.292 131.882 133.435 136.773 132.575C136.773 132.575 141.825 130.826 148.812 128.512C148.812 128.512 149.946 129.892 156.659 133.578C156.659 133.578 173.069 142.165 176.884 146.742L196.543 161.705C196.543 161.705 199.595 160.486 207.189 148.677L224.134 142.654L206.357 94.1557C206.357 94.1557 179.293 104.755 171.345 105.547L152.933 106.202Z" fill="#208AF2"/>
<path d="M194.529 95.3352L217.944 150.457L242.862 140.786L218.384 84.993L194.529 95.3352Z" fill="#699CFF"/>
<path d="M109.154 135.991C109.154 135.991 115.102 133.74 116.856 137.857C116.856 137.857 115.049 145.199 113.016 146.826C111.444 148.087 106.226 148.602 105.199 145.916C105.199 145.916 104.554 143.148 109.154 135.991Z" fill="#D4E5FF"/>
<path d="M162.787 136.955C162.787 136.955 173.852 141.501 185.03 132.547C185.03 132.547 177.351 142.894 167.016 139.454L162.787 136.955Z" fill="#0E84E5"/>
<path d="M59.7897 171C59.862 171.724 59.7181 172.452 59.3763 173.094C59.0344 173.736 58.51 174.262 57.8692 174.605C57.2285 174.949 56.5003 175.094 55.7766 175.024C55.053 174.954 54.3665 174.67 53.8039 174.21C53.2414 173.749 52.828 173.132 52.6161 172.437C52.4042 171.741 52.4033 170.999 52.6136 170.303C52.8238 169.607 53.2357 168.989 53.7972 168.527C54.3587 168.065 55.0445 167.78 55.768 167.708C56.7378 167.612 57.7063 167.904 58.4605 168.522C59.2147 169.139 59.6928 170.031 59.7897 171Z" fill="white"/>
<path d="M230.799 135.419C230.871 136.142 230.727 136.871 230.385 137.512C230.043 138.153 229.518 138.679 228.878 139.022C228.237 139.366 227.509 139.512 226.786 139.441C226.062 139.371 225.376 139.087 224.813 138.627C224.251 138.167 223.838 137.55 223.626 136.854C223.414 136.159 223.413 135.417 223.623 134.721C223.833 134.025 224.245 133.407 224.806 132.945C225.368 132.483 226.053 132.198 226.777 132.126C227.257 132.078 227.742 132.126 228.204 132.265C228.666 132.405 229.096 132.634 229.47 132.94C229.843 133.245 230.153 133.622 230.381 134.047C230.609 134.473 230.751 134.939 230.799 135.419Z" fill="white"/>
</svg>
