<svg width="320" height="320" viewBox="0 0 550 480" fill="none" xmlns="http://www.w3.org/2000/svg">
  <path transform="scale(1.9)" d="M23.6631 100.029C23.6631 100.029 62.434 98.4767 70.8125 34.7456C78.2528 -21.8537 143.631 3.90825 162.529 26.4701C187.01 55.6971 173.96 105.974 205.629 112.325C237.299 118.676 216.618 189.292 168.546 182.533C108.746 174.125 123.214 209.069 105.262 223.859C92.3786 234.475 39.5515 224.256 37.7908 185.723C36.3092 153.297 22.6315 153.4 12.9366 149.723C-1.04559 144.421 -9.85593 106.017 23.6631 100.029Z" fill="#DEE9FF"/>
  <g transform="translate(100, 140) scale(0.3) rotate(-5)">
    <path d="M675 189.9V70.8C675 31.9 643.4 0.300049 604.5 0.300049H70.5C31.6 0.300049 0 31.9 0 70.8V189.9C0 200 8.20005 208.2 18.3 208.2H656.7C666.8 208.2 675 200 675 189.9Z" fill="#60A5FA"/>
    <path d="M135 560.5H743.5C769.1 560.5 789.8 539.8 789.8 514.2V134.5C789.8 108.9 769.1 88.2 743.5 88.2H135C109.4 88.2 88.7 108.9 88.7 134.5V514.2C88.7 539.7 109.4 560.5 135 560.5Z" fill="#93C5FD"/>
    <path d="M708 207.3V580.4C708 609.2 684.6 632.6 655.8 632.6H52.2C23.4 632.6 0 609.2 0 580.4V88.0999C0 88.0999 11.0001 152.2 86.1001 155.1H655.8C684.7 155.1 708 178.5 708 207.3Z" fill="#3b82f6"/>
    <path d="M617 596.399H599.2V590.699H617V596.399ZM581.3 596.399H563.5V590.699H581.3V596.399ZM545.6 596.399H527.8V590.699H545.6V596.399ZM510 596.399H492.2V590.699H510V596.399ZM474.3 596.399H456.5V590.699H474.3V596.399ZM438.7 596.399H420.9V590.699H438.7V596.399ZM403 596.399H385.2V590.699H403V596.399ZM367.3 596.399H349.5V590.699H367.3V596.399ZM331.7 596.399H313.9V590.699H331.7V596.399ZM296 596.399H278.2V590.699H296V596.399ZM260.4 596.399H242.6V590.699H260.4V596.399ZM224.7 596.399H206.9V590.699H224.7V596.399ZM189 596.399H171.2V590.699H189V596.399ZM153.4 596.399H135.6V590.699H153.4V596.399ZM117.7 596.399H99.8999V590.699H117.7V596.399ZM82.1001 596.399H64.3V590.699H82.1001V596.399ZM46.3999 596.399H28.6001V590.699H46.3999V596.399ZM635 596.299L634.7 590.599C640.3 590.299 645.7 588.799 650.6 586.199L653.2 591.199C647.5 594.299 641.4 595.999 635 596.299ZM667.7 579.299L663.3 575.799C666.8 571.399 669.2 566.4 670.6 561L676.1 562.399C674.5 568.499 671.7 574.199 667.7 579.299ZM677.4 543.899H671.7V526.099H677.4V543.899ZM677.4 508.199H671.7V490.399H677.4V508.199ZM677.4 472.599H671.7V454.799H677.4V472.599ZM677.4 436.899H671.7V419.099H677.4V436.899ZM677.4 401.299H671.7V383.5H677.4V401.299ZM677.4 365.599H671.7V347.799H677.4V365.599ZM677.4 329.899H671.7V312.099H677.4V329.899ZM677.4 294.299H671.7V276.5H677.4V294.299ZM677.4 258.599H671.7V240.799H677.4V258.599ZM670.7 223.699C669.5 218.299 667.1 213.199 663.7 208.699L668.2 205.299C672.1 210.399 674.8 216.199 676.2 222.399L670.7 223.699ZM651.3 197.899C646.4 195.199 641.1 193.599 635.5 193.199L636 187.599C642.4 188.099 648.5 189.9 654.1 193L651.3 197.899ZM617.9 193H600V187.299H617.8V193H617.9ZM582.2 193H564.4V187.299H582.2V193ZM546.5 193H528.7V187.299H546.5V193ZM510.9 193H493.1V187.299H510.9V193ZM475.2 193H457.4V187.299H475.2V193ZM439.6 193H421.8V187.299H439.6V193ZM403.9 193H386.1V187.299H403.9V193ZM368.2 193H350.4V187.299H368.2V193ZM332.6 193H314.8V187.299H332.6V193ZM296.9 193H279.1V187.299H296.9V193ZM261.3 193H243.5V187.299H261.3V193ZM225.6 193H207.8V187.299H225.6V193ZM189.9 193H172.1V187.299H189.9V193ZM154.3 193H136.5V187.299H154.3V193ZM118.6 193H100.8V187.299H118.6V193ZM82.8 192.799C76.7001 192.399 70.7 191.599 64.7 190.299L65.8999 184.799C71.5999 185.999 77.4001 186.799 83.1001 187.199L82.8 192.799ZM47.2 185.299C41.5 183.199 35.9001 180.699 30.6001 177.699L33.3 172.699C38.4 175.499 43.7001 177.899 49.1001 179.899L47.2 185.299ZM15.3 167.799C13 166.099 10.7001 164.199 8.6001 162.299C6.3001 160.299 3.9001 158.099 1.6001 155.799L5.6001 151.699C7.8001 153.899 10.0999 156 12.3999 158C14.4999 159.8 16.6 161.599 18.8 163.199L15.3 167.799ZM2.5 596.399H10.7V590.699H1L2.5 596.399Z" fill="white"/>

    <path d="M708 286.3V503.8H566.8C526.1 503.8 493.1 470.8 493.1 430.1V360C493.1 319.3 526.1 286.3 566.8 286.3H708Z" fill="#5C6374"/>
    <path d="M595.4 428.9C614.122 428.9 629.3 413.722 629.3 395C629.3 376.278 614.122 361.1 595.4 361.1C576.677 361.1 561.5 376.278 561.5 395C561.5 413.722 576.677 428.9 595.4 428.9Z" fill="white"/>

  </g>

  <g transform="translate(30, 50) scale(1.8)">
    <path d="M208.291 193.613C219.303 193.613 228.231 184.685 228.231 173.673C228.231 162.66 219.303 153.733 208.291 153.733C197.278 153.733 188.351 162.66 188.351 173.673C188.351 184.685 197.278 193.613 208.291 193.613Z" fill="#418DF9" stroke="white" stroke-width="15" stroke-miterlimit="10"/>
    <path d="M215.973 172.003H210.294C210.25 172.003 210.207 171.994 210.166 171.977C210.126 171.961 210.089 171.936 210.058 171.905C210.027 171.874 210.002 171.837 209.986 171.797C209.969 171.756 209.96 171.713 209.96 171.669V165.991C209.96 165.548 209.784 165.123 209.471 164.81C209.158 164.497 208.733 164.321 208.29 164.321C207.847 164.321 207.423 164.497 207.109 164.81C206.796 165.123 206.62 165.548 206.62 165.991V171.669C206.62 171.713 206.612 171.756 206.595 171.797C206.578 171.837 206.553 171.874 206.522 171.905C206.491 171.936 206.455 171.961 206.414 171.977C206.374 171.994 206.33 172.003 206.286 172.003H200.609C200.169 172.007 199.748 172.185 199.438 172.497C199.128 172.81 198.954 173.233 198.954 173.673C198.954 174.113 199.128 174.536 199.438 174.848C199.748 175.161 200.169 175.339 200.609 175.343H206.287C206.375 175.343 206.46 175.378 206.523 175.441C206.586 175.503 206.621 175.588 206.621 175.677V181.355C206.621 181.798 206.797 182.222 207.11 182.535C207.423 182.849 207.848 183.025 208.291 183.025C208.734 183.025 209.158 182.849 209.472 182.535C209.785 182.222 209.961 181.798 209.961 181.355V175.677C209.961 175.588 209.996 175.503 210.059 175.441C210.121 175.378 210.206 175.343 210.295 175.343H215.973C216.413 175.339 216.834 175.161 217.144 174.848C217.453 174.536 217.627 174.113 217.627 173.673C217.627 173.233 217.453 172.81 217.144 172.497C216.834 172.185 216.413 172.007 215.973 172.003Z" fill="white"/>
  </g>
</svg>
